<?xml version="1.0" standalone="no"?>
<!DOCTYPE svg PUBLIC "-//W3C//DTD SVG 20010904//EN"
 "http://www.w3.org/TR/2001/REC-SVG-20010904/DTD/svg10.dtd">
<svg version="1.0" xmlns="http://www.w3.org/2000/svg"
 width="635.000000pt" height="640.000000pt" viewBox="0 0 635.000000 640.000000"
 preserveAspectRatio="xMidYMid meet">

<g transform="translate(0.000000,640.000000) scale(0.100000,-0.100000)"
fill="#000000" stroke="none">
<path d="M2050 5804 c-114 -103 -433 -685 -630 -1149 -201 -474 -379 -1136
-469 -1745 -27 -186 -36 -222 -94 -390 -126 -362 -227 -838 -227 -1070 0 -206
97 -298 465 -443 299 -117 766 -261 981 -302 147 -29 209 15 321 227 87 163
90 177 62 234 -31 66 -110 118 -269 179 -168 64 -360 170 -470 258 -53 44 -65
58 -65 82 0 47 28 42 118 -22 89 -64 254 -159 344 -199 89 -40 187 -69 343
-104 80 -17 190 -43 245 -57 55 -14 120 -30 145 -36 58 -14 557 -12 750 3 193
15 357 42 515 85 72 20 161 42 199 51 41 9 103 34 152 61 138 77 380 308 434
414 23 44 27 45 57 24 19 -13 21 -20 12 -41 -46 -124 -265 -344 -454 -458 -44
-27 -102 -69 -130 -93 -119 -107 -122 -140 -33 -296 94 -164 149 -217 225
-217 41 0 340 139 435 203 123 82 265 204 348 297 149 170 328 437 365 546 23
67 16 100 -57 273 -70 167 -260 734 -288 861 -24 106 -25 191 -4 233 9 17 45
66 80 109 68 84 82 116 68 156 -14 40 -38 50 -74 29 -37 -22 -38 -12 -5 49 14
26 25 55 25 64 0 9 31 77 69 151 108 212 122 314 71 544 -42 190 -236 720
-295 805 -45 65 -106 86 -163 56 -15 -8 -118 -92 -227 -186 -264 -227 -372
-307 -665 -492 -305 -192 -443 -272 -497 -288 -32 -10 -81 -10 -225 -1 -233
14 -333 14 -540 -1 -182 -13 -185 -12 -214 43 -7 15 -32 116 -54 224 -85 409
-211 778 -371 1084 -82 156 -114 206 -164 249 -50 45 -92 43 -145 -4z m274
-444 c24 -21 42 -52 60 -103 30 -84 70 -235 86 -326 6 -36 22 -92 35 -125 60
-153 138 -540 124 -620 -7 -42 -18 -53 -68 -62 -30 -6 -38 -3 -58 22 -13 16
-27 45 -32 64 -75 308 -121 511 -121 537 0 59 -30 100 -64 87 -20 -8 -23 -17
-67 -239 -22 -110 -52 -247 -68 -305 -16 -58 -36 -141 -45 -184 -26 -126 -53
-156 -152 -171 l-41 -6 -8 53 c-26 166 38 524 222 1237 33 129 64 171 124 171
28 0 47 -8 73 -30z m3033 -893 c47 -47 82 -120 118 -244 34 -117 33 -152 -11
-230 -34 -62 -54 -73 -54 -31 0 17 -4 19 -27 14 -42 -10 -73 -53 -122 -168
-85 -200 -166 -337 -217 -367 -30 -18 -37 -19 -67 -6 -42 17 -85 60 -103 103
-13 31 -12 38 6 76 11 22 40 65 65 94 59 70 158 238 194 332 16 41 46 145 67
230 20 85 45 166 54 180 9 14 20 33 23 43 10 27 28 20 74 -26z m-2712 -1277
c302 -77 492 -298 512 -595 3 -53 1 -120 -6 -160 -22 -129 -53 -253 -72 -284
-17 -28 -24 -31 -67 -31 -26 0 -52 4 -58 9 -15 14 -75 30 -149 40 -135 17
-669 246 -775 333 -30 25 -93 68 -140 97 -47 29 -95 62 -107 73 -22 20 -22 21
-3 69 31 83 65 130 167 235 110 113 161 145 303 188 175 53 267 59 395 26z
m1984 -74 c37 -38 59 -101 67 -197 9 -92 -1 -133 -43 -179 -44 -50 -148 -124
-208 -150 -48 -20 -281 -181 -303 -208 -37 -47 74 -27 183 32 68 38 151 66
278 96 100 24 171 20 187 -11 25 -45 2 -178 -38 -222 -43 -48 -153 -73 -377
-86 -123 -7 -146 -11 -193 -35 -70 -35 -166 -59 -208 -51 -81 15 -131 100
-121 208 8 94 44 189 121 317 91 152 130 203 218 288 102 99 181 159 263 198
91 45 131 45 174 0z m-1324 -846 c4 -6 -4 -26 -16 -46 -12 -20 -22 -52 -22
-73 0 -103 76 -129 256 -89 44 9 54 8 100 -15 29 -14 85 -34 125 -44 l74 -18
29 33 c33 36 44 39 58 15 14 -26 -10 -63 -96 -151 -69 -69 -81 -88 -124 -188
-101 -236 -140 -294 -209 -309 -61 -13 -146 49 -194 143 -26 51 -44 151 -56
322 -6 85 -16 171 -21 190 -21 79 -4 175 38 222 18 20 48 24 58 8z"/>
</g>
</svg>
